<svg width="33" height="33" viewBox="0 0 33 33" fill="none" xmlns="http://www.w3.org/2000/svg">
<rect x="0.532715" y="0.0280151" width="32" height="32" rx="16" fill="url(#paint0_linear_129_742)"/>
<path d="M16.6696 18.6947C16.1007 18.6947 15.6058 18.5864 15.1847 18.3698C14.7636 18.1463 14.4385 17.832 14.2095 17.4268C13.9805 17.0217 13.866 16.5467 13.866 16.0018C13.866 15.5897 13.9288 15.2229 14.0544 14.9016C14.1873 14.5733 14.3757 14.2974 14.6195 14.0738C14.8633 13.8433 15.1588 13.6687 15.506 13.5499C15.8532 13.4242 16.2411 13.3613 16.6696 13.3613C16.9134 13.3613 17.1756 13.3928 17.4563 13.4556C17.7445 13.5185 18.0141 13.6233 18.2653 13.77C18.3835 13.8398 18.4611 13.9237 18.498 14.0214C18.5349 14.1192 18.5423 14.2205 18.5202 14.3253C18.498 14.4231 18.45 14.5104 18.3761 14.5873C18.3096 14.6571 18.2247 14.7025 18.1212 14.7235C18.0178 14.7374 17.9033 14.713 17.7777 14.6501C17.6152 14.5593 17.449 14.493 17.279 14.451C17.1091 14.4021 16.9466 14.3777 16.7915 14.3777C16.5477 14.3777 16.3334 14.4161 16.1487 14.493C15.9641 14.5628 15.8052 14.6676 15.6722 14.8073C15.5466 14.94 15.4506 15.1077 15.3841 15.3102C15.3176 15.5128 15.2844 15.7468 15.2844 16.0123C15.2844 16.5292 15.4137 16.9378 15.6722 17.2382C15.9382 17.5316 16.3113 17.6783 16.7915 17.6783C16.9466 17.6783 17.1054 17.6573 17.268 17.6154C17.4379 17.5735 17.6078 17.5071 17.7777 17.4163C17.9033 17.3535 18.0141 17.3325 18.1102 17.3535C18.2136 17.3744 18.2985 17.4233 18.365 17.5002C18.4315 17.57 18.4721 17.6573 18.4869 17.7621C18.5017 17.8599 18.4869 17.9577 18.4426 18.0555C18.4057 18.1533 18.3318 18.2336 18.221 18.2965C17.9772 18.4362 17.7186 18.5375 17.4453 18.6004C17.1719 18.6632 16.9134 18.6947 16.6696 18.6947Z" fill="white"/>
<path d="M16.5327 13.028V19.028" stroke="white" stroke-linecap="round" stroke-linejoin="round"/>
<path d="M23.1993 16.028C23.1993 19.708 20.2126 22.6947 16.5326 22.6947C12.8526 22.6947 9.86597 19.708 9.86597 16.028C9.86597 12.348 12.8526 9.36133 16.5326 9.36133" stroke="white" stroke-linecap="round" stroke-linejoin="round"/>
<path d="M19.866 10.028V12.6947H22.5326" stroke="white" stroke-linecap="round" stroke-linejoin="round"/>
<path d="M23.1993 9.36133L19.866 12.6947" stroke="white" stroke-linecap="round" stroke-linejoin="round"/>
<defs>
<linearGradient id="paint0_linear_129_742" x1="3" y1="8.41119" x2="40.7683" y2="27.7028" gradientUnits="userSpaceOnUse">
<stop stop-color="#E0AD0F"/>
<stop offset="0.738102" stop-color="#A07801"/>
</linearGradient>
</defs>
</svg>
