<svg width="33" height="33" viewBox="0 0 33 33" fill="none" xmlns="http://www.w3.org/2000/svg">
<rect x="0.532715" y="0.0466919" width="32" height="32" rx="16" fill="url(#paint0_linear_144_694)"/>
<path d="M16.6696 18.7133C16.1007 18.7133 15.6058 18.6051 15.1847 18.3885C14.7636 18.165 14.4385 17.8506 14.2095 17.4455C13.9805 17.0403 13.866 16.5653 13.866 16.0205C13.866 15.6083 13.9288 15.2416 14.0544 14.9203C14.1873 14.592 14.3757 14.316 14.6195 14.0925C14.8633 13.862 15.1588 13.6874 15.506 13.5686C15.8532 13.4429 16.2411 13.38 16.6696 13.38C16.9134 13.38 17.1756 13.4114 17.4563 13.4743C17.7445 13.5372 18.0141 13.642 18.2653 13.7886C18.3835 13.8585 18.4611 13.9423 18.498 14.0401C18.5349 14.1379 18.5423 14.2392 18.5202 14.344C18.498 14.4418 18.45 14.5291 18.3761 14.6059C18.3096 14.6758 18.2247 14.7212 18.1212 14.7422C18.0178 14.7561 17.9033 14.7317 17.7777 14.6688C17.6152 14.578 17.449 14.5116 17.279 14.4697C17.1091 14.4208 16.9466 14.3964 16.7915 14.3964C16.5477 14.3964 16.3334 14.4348 16.1487 14.5116C15.9641 14.5815 15.8052 14.6863 15.6722 14.826C15.5466 14.9587 15.4506 15.1263 15.3841 15.3289C15.3176 15.5315 15.2844 15.7655 15.2844 16.031C15.2844 16.5479 15.4137 16.9565 15.6722 17.2569C15.9382 17.5503 16.3113 17.697 16.7915 17.697C16.9466 17.697 17.1054 17.676 17.268 17.6341C17.4379 17.5922 17.6078 17.5258 17.7777 17.435C17.9033 17.3721 18.0141 17.3512 18.1102 17.3721C18.2136 17.3931 18.2985 17.442 18.365 17.5188C18.4315 17.5887 18.4721 17.676 18.4869 17.7808C18.5017 17.8786 18.4869 17.9764 18.4426 18.0742C18.4057 18.172 18.3318 18.2523 18.221 18.3152C17.9772 18.4549 17.7186 18.5562 17.4453 18.619C17.1719 18.6819 16.9134 18.7133 16.6696 18.7133Z" fill="white"/>
<path d="M16.5327 13.0467V19.0467" stroke="white" stroke-linecap="round" stroke-linejoin="round"/>
<path d="M23.1993 16.0467C23.1993 19.7267 20.2126 22.7133 16.5326 22.7133C12.8526 22.7133 9.86597 19.7267 9.86597 16.0467C9.86597 12.3667 12.8526 9.38 16.5326 9.38" stroke="white" stroke-linecap="round" stroke-linejoin="round"/>
<path d="M23.1994 12.0467V9.38H20.5327" stroke="white" stroke-linecap="round" stroke-linejoin="round"/>
<path d="M19.866 12.7133L23.1993 9.38" stroke="white" stroke-linecap="round" stroke-linejoin="round"/>
<defs>
<linearGradient id="paint0_linear_144_694" x1="32.5327" y1="32.0467" x2="-5.54441" y2="21.0066" gradientUnits="userSpaceOnUse">
<stop stop-color="#022E64"/>
<stop offset="1" stop-color="#0E5DBD"/>
</linearGradient>
</defs>
</svg>
