<svg width="41" height="40" viewBox="0 0 41 40" fill="none" xmlns="http://www.w3.org/2000/svg">
<path d="M18.1402 8.20018L18.1407 8.19976C19.5864 7.03865 21.9068 7.04547 23.374 8.21437C23.3742 8.21448 23.3743 8.21458 23.3744 8.21469L32.102 15.1967C32.1028 15.1973 32.1035 15.198 32.1043 15.1986C32.6072 15.6095 33.0428 16.2525 33.3238 16.9879C33.6046 17.7229 33.7094 18.4931 33.6116 19.1346L31.9331 29.1793C31.933 29.1799 31.9328 29.1805 31.9327 29.1812C31.5999 31.0917 29.7409 32.6667 27.8166 32.6667H13.6832C11.7306 32.6667 9.91331 31.1302 9.58055 29.1953C9.58047 29.1948 9.58039 29.1944 9.58031 29.1939L7.90079 19.1434L7.90054 19.1419C7.79101 18.4957 7.88931 17.7239 8.16949 16.9892C8.44964 16.2545 8.89061 15.6121 9.4057 15.2011L9.40686 15.2002L18.1402 8.20018ZM20.7499 29.6667C21.6648 29.6667 22.4166 28.9148 22.4166 28V24C22.4166 23.0851 21.6648 22.3333 20.7499 22.3333C19.8351 22.3333 19.0832 23.0851 19.0832 24V28C19.0832 28.9148 19.8351 29.6667 20.7499 29.6667Z" fill="#E6B014" stroke="#E6B014" stroke-width="1.33333"/>
</svg>
